<svg width="33" height="33" viewBox="0 0 33 33" fill="none" xmlns="http://www.w3.org/2000/svg">
<path fill-rule="evenodd" clip-rule="evenodd" d="M13.4837 6.52309C14.3432 5.66355 15.509 5.18066 16.7246 5.18066C17.9401 5.18066 19.1059 5.66355 19.9655 6.52309C20.825 7.38263 21.3079 8.54842 21.3079 9.764V14.3473H12.1412V9.764C12.1412 8.54842 12.6241 7.38263 13.4837 6.52309ZM10.6412 14.3473V9.764C10.6412 8.1506 11.2822 6.60328 12.423 5.46243C13.5638 4.32158 15.1112 3.68066 16.7246 3.68066C18.338 3.68066 19.8853 4.32158 21.0261 5.46243C22.167 6.60328 22.8079 8.1506 22.8079 9.764V14.3473H23.3912C25.2782 14.3473 26.8079 15.877 26.8079 17.764V25.764C26.8079 27.651 25.2782 29.1807 23.3912 29.1807H10.0579C8.17093 29.1807 6.64124 27.651 6.64124 25.764V17.764C6.64124 15.877 8.17093 14.3473 10.0579 14.3473H10.6412ZM22.0579 15.8473H23.3912C24.4498 15.8473 25.3079 16.7055 25.3079 17.764V25.764C25.3079 26.8225 24.4498 27.6807 23.3912 27.6807H10.0579C8.99936 27.6807 8.14124 26.8225 8.14124 25.764V17.764C8.14124 16.7055 8.99936 15.8473 10.0579 15.8473H11.3912H22.0579ZM16.7246 21.1807C16.4024 21.1807 16.1412 21.4418 16.1412 21.764C16.1412 22.0862 16.4024 22.3473 16.7246 22.3473C17.0467 22.3473 17.3079 22.0862 17.3079 21.764C17.3079 21.4418 17.0467 21.1807 16.7246 21.1807ZM14.6412 21.764C14.6412 20.6134 15.574 19.6807 16.7246 19.6807C17.8752 19.6807 18.8079 20.6134 18.8079 21.764C18.8079 22.9146 17.8752 23.8473 16.7246 23.8473C15.574 23.8473 14.6412 22.9146 14.6412 21.764Z" fill="#121212"/>
</svg>
