<svg width="40" height="40" viewBox="0 0 40 40" fill="none" xmlns="http://www.w3.org/2000/svg">
<path fill-rule="evenodd" clip-rule="evenodd" d="M14.902 15.5882L15.6305 14.9555L16.8628 13.8853V6.70296C16.8628 5.76255 15.9848 5 14.902 5C13.8192 5 12.9412 5.76255 12.9412 6.70296V13.8853L14.1734 14.9555L14.902 15.5882ZM14.902 24.4118L14.1734 25.0445L12.9412 26.1147V33.297C12.9412 34.2375 13.8192 35 14.902 35C15.9848 35 16.8628 34.2375 16.8628 33.297V26.1147L15.6305 25.0445L14.902 24.4118ZM20.0441 19.1734L21.1147 17.9412H28.297C29.2375 17.9412 30 18.8192 30 19.902C30 20.9847 29.2375 21.8627 28.297 21.8627H21.1147L20.0441 20.6305L19.4118 19.902L20.0441 19.1734ZM10.5882 19.902L9.95549 19.1734L8.88528 17.9412H1.70296C0.762547 17.9412 0 18.8192 0 19.902C0 20.9847 0.762547 21.8627 1.70296 21.8627H8.88528L9.95549 20.6305L10.5882 19.902ZM11.6941 20.8823L14.1176 23.3059L13.4809 23.9426L6.84694 30.5765C6.5122 30.9112 6.07387 31.0784 5.63516 31.0784C5.41581 31.0784 5.19683 31.0365 4.99043 30.9528C4.78402 30.8694 4.59094 30.7437 4.42338 30.5765C3.75427 29.9074 3.75427 28.8221 4.42338 28.153L11.0573 21.5191L11.6941 20.8823ZM15.8824 16.6941L18.3059 19.1177L18.9427 18.4809L25.5766 11.847C26.2457 11.1779 26.2457 10.093 25.5766 9.4235C25.4091 9.25632 25.216 9.13065 25.0096 9.04725C24.8036 8.96347 24.5842 8.92158 24.3648 8.92158C23.9261 8.92158 23.4878 9.08876 23.1531 9.4235L16.5191 16.0574L15.8824 16.6941ZM14.6078 17.2262L16.9895 19.6079L18.6736 21.292L25.1928 27.8113C25.8507 28.4692 25.8507 29.5355 25.1928 30.193C24.8642 30.522 24.4331 30.6863 24.002 30.6863C23.5712 30.6863 23.1401 30.522 22.8112 30.193L16.2919 23.6737L14.6078 21.9896L12.2262 19.6079L10.5421 17.9237L4.02282 11.4044C3.36491 10.7465 3.36491 9.68023 4.02282 9.02268C4.10478 8.94034 4.19348 8.86849 4.28704 8.80674C4.47378 8.68361 4.67962 8.60128 4.89181 8.56011C4.99809 8.53953 5.10587 8.52942 5.21365 8.52942C5.6444 8.52942 6.07553 8.69372 6.40449 9.02268L12.9237 15.542L14.6078 17.2262Z" fill="#2B2B2B"/>
</svg>
