<svg width="33" height="33" viewBox="0 0 33 33" fill="none" xmlns="http://www.w3.org/2000/svg">
<path fill-rule="evenodd" clip-rule="evenodd" d="M3.16667 6.4165C2.75245 6.4165 2.41667 6.75229 2.41667 7.1665C2.41667 7.58072 2.75245 7.9165 3.16667 7.9165H17.0833V8.49984V15.1665V22.4165H13.1674C12.8256 20.8903 11.4627 19.7498 9.83333 19.7498C8.20402 19.7498 6.84107 20.8903 6.49924 22.4165H5.25V17.8332C5.25 17.419 4.91421 17.0832 4.5 17.0832C4.08579 17.0832 3.75 17.419 3.75 17.8332V23.1665C3.75 23.5807 4.08579 23.9165 4.5 23.9165H6.49924C6.84107 25.4427 8.20402 26.5832 9.83333 26.5832C11.4626 26.5832 12.8256 25.4427 13.1674 23.9165H17.8333H19.8326C20.1744 25.4427 21.5373 26.5832 23.1667 26.5832C24.796 26.5832 26.1589 25.4427 26.5008 23.9165H28.5C28.9142 23.9165 29.25 23.5807 29.25 23.1665V15.1788C29.2512 15.1079 29.2424 15.0365 29.2231 14.9666C29.2037 14.8964 29.1744 14.8304 29.1368 14.7701L25.1431 8.11397C25.0076 7.88806 24.7634 7.74984 24.5 7.74984H18.5833V7.1665C18.5833 6.75229 18.2475 6.4165 17.8333 6.4165H3.16667ZM26.5008 22.4165H27.75V15.9165H18.5833V22.4165H19.8326C20.1744 20.8903 21.5373 19.7498 23.1667 19.7498C24.796 19.7498 26.1589 20.8903 26.5008 22.4165ZM7.91667 23.1672C7.91706 24.2254 8.77503 25.0832 9.83333 25.0832C10.8919 25.0832 11.75 24.225 11.75 23.1665C11.75 22.108 10.8919 21.2498 9.83333 21.2498C8.77479 21.2498 7.91667 22.108 7.91667 23.1665C7.91667 23.1667 7.91667 23.167 7.91667 23.1672ZM18.5833 14.4165V9.24984H24.0754L27.1754 14.4165H18.5833ZM23.1667 21.2498C22.1081 21.2498 21.25 22.108 21.25 23.1665C21.25 24.225 22.1081 25.0832 23.1667 25.0832C24.2252 25.0832 25.0833 24.225 25.0833 23.1665C25.0833 22.108 24.2252 21.2498 23.1667 21.2498Z" fill="#121212"/>
</svg>
