<svg width="18" height="18" viewBox="0 0 18 18" fill="none" xmlns="http://www.w3.org/2000/svg">
<path fill-rule="evenodd" clip-rule="evenodd" d="M3.28825 4.82671C3.41318 4.58629 3.6645 4.42206 3.95418 4.42206H14.4542C14.7439 4.42206 14.9952 4.58629 15.1201 4.82671L9.20418 8.77067L3.28825 4.82671ZM1.70423 5.15768C1.70408 5.1659 1.70406 5.17411 1.70418 5.18231V12.6721C1.70418 13.9147 2.71154 14.9221 3.95418 14.9221H14.4542C15.6968 14.9221 16.7042 13.9147 16.7042 12.6721V5.18233M15.2042 6.57345V12.6721C15.2042 13.0863 14.8684 13.4221 14.4542 13.4221H3.95418C3.53997 13.4221 3.20418 13.0863 3.20418 12.6721V6.57345L8.78816 10.2961C9.04008 10.464 9.36828 10.464 9.62021 10.2961L15.2042 6.57345ZM16.7041 5.15766C16.6964 3.92165 15.692 2.92206 14.4542 2.92206H3.95418C2.71634 2.92206 1.71196 3.92166 1.70423 5.15768" fill="#121212"/>
</svg>
