<svg width="14" height="14" viewBox="0 0 14 14" fill="none" xmlns="http://www.w3.org/2000/svg">
<path fill-rule="evenodd" clip-rule="evenodd" d="M4.24316 1.711C3.00052 1.711 1.99316 2.71836 1.99316 3.961V9.961C1.99316 11.2036 3.00052 12.211 4.24316 12.211H10.2432C11.4858 12.211 12.4932 11.2036 12.4932 9.961V3.961C12.4932 2.71836 11.4858 1.711 10.2432 1.711H4.24316ZM0.493164 3.961C0.493164 1.88993 2.1721 0.210999 4.24316 0.210999H10.2432C12.3142 0.210999 13.9932 1.88993 13.9932 3.961V9.961C13.9932 12.0321 12.3142 13.711 10.2432 13.711H4.24316C2.1721 13.711 0.493164 12.0321 0.493164 9.961V3.961ZM7.24316 5.461C6.41474 5.461 5.74316 6.13257 5.74316 6.961C5.74316 7.78943 6.41474 8.461 7.24316 8.461C8.07159 8.461 8.74316 7.78943 8.74316 6.961C8.74316 6.13257 8.07159 5.461 7.24316 5.461ZM4.24316 6.961C4.24316 5.30414 5.58631 3.961 7.24316 3.961C8.90002 3.961 10.2432 5.30414 10.2432 6.961C10.2432 8.61785 8.90002 9.961 7.24316 9.961C5.58631 9.961 4.24316 8.61785 4.24316 6.961ZM11.3682 3.586C11.3682 3.17179 11.0324 2.836 10.6182 2.836C10.204 2.836 9.86816 3.17179 9.86816 3.586V3.58675C9.86816 4.00096 10.204 4.33675 10.6182 4.33675C11.0324 4.33675 11.3682 4.00096 11.3682 3.58675V3.586Z" fill="#121212"/>
</svg>
