<svg width="17" height="14" viewBox="0 0 17 14" fill="none" xmlns="http://www.w3.org/2000/svg">
<path d="M16.2271 0.929568C15.4771 1.29707 14.7421 1.44632 13.9771 1.67207C13.1363 0.723318 11.8898 0.670818 10.6921 1.11932C9.4943 1.56782 8.7098 2.66432 8.72705 3.92207V4.67207C6.2933 4.73432 4.1258 3.62582 2.72705 1.67207C2.72705 1.67207 -0.40945 7.24682 5.72705 9.92207C4.32305 10.8573 2.9228 11.4881 1.22705 11.4221C3.70805 12.7743 6.4118 13.2393 8.75255 12.5598C11.4376 11.7798 13.6441 9.76757 14.4908 6.75332C14.7434 5.83657 14.8688 4.88946 14.8636 3.93857C14.8621 3.75182 15.9961 1.85957 16.2271 0.928818V0.929568Z" stroke="#121212" stroke-width="1.5" stroke-linecap="round" stroke-linejoin="round"/>
</svg>
